<svg xmlns="http://www.w3.org/2000/svg" xmlns:xlink="http://www.w3.org/1999/xlink" width="125" zoomAndPan="magnify" viewBox="0 0 93.75 93.749997" height="125" preserveAspectRatio="xMidYMid meet" version="1.0"><defs><g/></defs><g fill="#ffffff" fill-opacity="1"><g transform="translate(31.611336, 48.231023)"><g><path d="M 3.738281 -4.65625 L 0.636719 -4.65625 C 0.59375 -4.65625 0.480469 -4.636719 0.480469 -4.464844 L 0.480469 -4.011719 C 0.480469 -3.835938 0.59375 -3.820312 0.636719 -3.820312 L 3.316406 -3.820312 C 3.328125 -3.820312 3.332031 -3.8125 3.332031 -3.800781 L 3.332031 -3.628906 C 3.332031 -3.621094 3.332031 -3.617188 3.328125 -3.617188 L 0.695312 -1.71875 C 0.644531 -1.683594 0.605469 -1.648438 0.578125 -1.617188 C 0.542969 -1.582031 0.515625 -1.535156 0.496094 -1.492188 C 0.480469 -1.445312 0.46875 -1.394531 0.457031 -1.332031 C 0.453125 -1.28125 0.453125 -1.21875 0.453125 -1.140625 L 0.453125 -0.535156 C 0.453125 -0.363281 0.480469 -0.230469 0.546875 -0.140625 C 0.617188 -0.046875 0.730469 0 0.882812 0 L 3.984375 0 C 4.027344 0 4.140625 -0.015625 4.140625 -0.191406 L 4.140625 -0.644531 C 4.140625 -0.820312 4.027344 -0.835938 3.984375 -0.835938 L 1.304688 -0.835938 C 1.292969 -0.835938 1.289062 -0.847656 1.289062 -0.851562 L 1.289062 -1.039062 C 1.289062 -1.046875 1.289062 -1.050781 1.292969 -1.050781 L 3.910156 -2.933594 C 3.960938 -2.964844 4 -3 4.035156 -3.035156 C 4.066406 -3.066406 4.097656 -3.105469 4.117188 -3.15625 C 4.136719 -3.203125 4.152344 -3.253906 4.15625 -3.3125 C 4.164062 -3.363281 4.167969 -3.414062 4.167969 -3.484375 L 4.167969 -4.113281 C 4.167969 -4.566406 3.9375 -4.65625 3.738281 -4.65625 Z M 3.738281 -4.65625 "/></g></g></g><g fill="#ffffff" fill-opacity="1"><g transform="translate(36.514854, 48.231023)"><g><path d="M 3.847656 -1.011719 L 1.859375 -1.011719 C 1.738281 -1.011719 1.644531 -1.027344 1.566406 -1.050781 C 1.492188 -1.078125 1.441406 -1.117188 1.394531 -1.175781 C 1.351562 -1.238281 1.316406 -1.320312 1.300781 -1.429688 C 1.292969 -1.457031 1.292969 -1.496094 1.289062 -1.523438 C 1.289062 -1.523438 1.292969 -1.933594 1.300781 -1.933594 L 3.824219 -1.933594 C 3.871094 -1.933594 3.984375 -1.953125 3.984375 -2.128906 L 3.984375 -2.578125 C 3.984375 -2.75 3.871094 -2.769531 3.824219 -2.769531 L 0.910156 -2.761719 C 0.746094 -2.75 0.605469 -2.667969 0.527344 -2.523438 C 0.496094 -2.480469 0.472656 -2.433594 0.464844 -2.382812 L 0.453125 -1.671875 L 0.453125 -1.644531 C 0.457031 -1.378906 0.484375 -1.152344 0.527344 -0.964844 C 0.578125 -0.738281 0.660156 -0.554688 0.769531 -0.414062 C 0.882812 -0.265625 1.027344 -0.164062 1.210938 -0.101562 C 1.382812 -0.0351562 1.59375 -0.00390625 1.839844 -0.00390625 L 3.847656 -0.00390625 C 3.898438 -0.00390625 4.011719 -0.0234375 4.011719 -0.199219 L 4.011719 -0.820312 C 4.011719 -0.996094 3.898438 -1.011719 3.847656 -1.011719 Z M 3.851562 -4.667969 L 0.605469 -4.667969 C 0.558594 -4.667969 0.453125 -4.644531 0.453125 -4.464844 L 0.453125 -4.023438 C 0.453125 -3.847656 0.558594 -3.832031 0.605469 -3.832031 L 3.851562 -3.824219 C 3.898438 -3.824219 4.011719 -3.847656 4.011719 -4.023438 L 4.011719 -4.46875 C 4.011719 -4.644531 3.898438 -4.667969 3.851562 -4.667969 Z M 3.851562 -4.667969 "/></g></g></g><g fill="#ffffff" fill-opacity="1"><g transform="translate(41.260194, 48.231023)"><g><path d="M 4.453125 -4.65625 L 3.949219 -4.65625 C 3.898438 -4.65625 3.789062 -4.636719 3.789062 -4.457031 L 3.789062 -1.0625 C 3.789062 -1.054688 3.789062 -1.054688 3.789062 -1.050781 L 3.761719 -1.050781 C 3.757812 -1.050781 3.75 -1.050781 3.746094 -1.066406 L 1.960938 -4.242188 C 1.914062 -4.328125 1.875 -4.394531 1.835938 -4.445312 C 1.796875 -4.503906 1.757812 -4.546875 1.71875 -4.574219 C 1.671875 -4.609375 1.621094 -4.632812 1.558594 -4.644531 C 1.503906 -4.648438 1.433594 -4.65625 1.363281 -4.65625 L 0.9375 -4.65625 C 0.773438 -4.65625 0.648438 -4.597656 0.570312 -4.496094 C 0.492188 -4.390625 0.453125 -4.203125 0.453125 -3.925781 L 0.453125 -0.191406 C 0.453125 -0.015625 0.566406 0.00390625 0.617188 0.00390625 L 1.117188 0.00390625 C 1.167969 0.00390625 1.277344 -0.015625 1.277344 -0.191406 L 1.277344 -3.585938 C 1.277344 -3.59375 1.277344 -3.597656 1.277344 -3.597656 L 1.304688 -3.597656 C 1.304688 -3.597656 1.3125 -3.597656 1.320312 -3.582031 L 3.113281 -0.40625 C 3.15625 -0.316406 3.203125 -0.25 3.242188 -0.199219 C 3.28125 -0.140625 3.320312 -0.101562 3.367188 -0.0742188 C 3.414062 -0.0390625 3.464844 -0.0234375 3.519531 -0.0117188 C 3.570312 0 3.632812 0.00390625 3.710938 0.00390625 L 4.125 0.00390625 C 4.289062 0.00390625 4.414062 -0.0507812 4.492188 -0.15625 C 4.570312 -0.261719 4.609375 -0.445312 4.609375 -0.722656 L 4.609375 -4.457031 C 4.609375 -4.636719 4.496094 -4.65625 4.453125 -4.65625 Z M 4.453125 -4.65625 "/></g></g></g><g fill="#ffffff" fill-opacity="1"><g transform="translate(46.604349, 48.231023)"><g/></g></g><g fill="#ffffff" fill-opacity="1"><g transform="translate(49.790506, 48.231023)"><g><path d="M 3.21875 -4.65625 L 0.609375 -4.65625 C 0.566406 -4.65625 0.453125 -4.636719 0.453125 -4.457031 L 0.453125 -4.011719 C 0.453125 -3.835938 0.566406 -3.820312 0.609375 -3.820312 L 3.074219 -3.820312 C 3.214844 -3.820312 3.316406 -3.78125 3.371094 -3.695312 C 3.433594 -3.609375 3.464844 -3.472656 3.464844 -3.289062 C 3.464844 -3.101562 3.433594 -2.964844 3.371094 -2.882812 C 3.316406 -2.796875 3.214844 -2.757812 3.074219 -2.757812 L 0.609375 -2.757812 C 0.566406 -2.757812 0.453125 -2.738281 0.453125 -2.566406 L 0.453125 -0.191406 C 0.453125 -0.015625 0.566406 0.00390625 0.609375 0.00390625 L 1.128906 0.00390625 C 1.175781 0.00390625 1.289062 -0.015625 1.289062 -0.191406 L 1.289062 -1.921875 L 3.21875 -1.925781 C 3.605469 -1.925781 3.882812 -2.046875 4.050781 -2.28125 C 4.21875 -2.519531 4.300781 -2.859375 4.300781 -3.304688 L 4.300781 -3.269531 C 4.300781 -3.722656 4.21875 -4.0625 4.050781 -4.292969 C 3.882812 -4.535156 3.605469 -4.65625 3.21875 -4.65625 Z M 3.21875 -4.65625 "/></g></g></g><g fill="#ffffff" fill-opacity="1"><g transform="translate(54.823955, 48.231023)"><g><path d="M 4.304688 -3.304688 C 4.304688 -3.300781 4.304688 -3.292969 4.304688 -3.289062 C 4.304688 -3.28125 4.304688 -3.277344 4.304688 -3.269531 Z M 4.414062 -0.242188 L 3.421875 -1.9375 C 3.699219 -1.972656 3.914062 -2.089844 4.054688 -2.28125 C 4.214844 -2.515625 4.300781 -2.847656 4.304688 -3.289062 C 4.300781 -3.730469 4.214844 -4.0625 4.054688 -4.292969 C 3.886719 -4.535156 3.605469 -4.65625 3.21875 -4.65625 L 0.617188 -4.65625 C 0.566406 -4.65625 0.453125 -4.636719 0.453125 -4.457031 L 0.453125 -4.011719 C 0.453125 -3.835938 0.566406 -3.820312 0.617188 -3.820312 L 3.074219 -3.820312 C 3.21875 -3.820312 3.316406 -3.78125 3.371094 -3.695312 C 3.433594 -3.609375 3.464844 -3.472656 3.464844 -3.289062 C 3.464844 -3.101562 3.433594 -2.964844 3.371094 -2.882812 C 3.316406 -2.796875 3.21875 -2.757812 3.074219 -2.757812 L 0.617188 -2.757812 C 0.566406 -2.757812 0.453125 -2.738281 0.453125 -2.566406 L 0.453125 -0.191406 C 0.453125 -0.015625 0.566406 0.00390625 0.617188 0.00390625 L 1.128906 0.00390625 C 1.179688 0.00390625 1.289062 -0.015625 1.289062 -0.191406 L 1.289062 -1.921875 L 2.480469 -1.921875 L 3.503906 -0.105469 C 3.523438 -0.0742188 3.542969 -0.046875 3.566406 -0.0273438 C 3.59375 -0.00390625 3.632812 0.00390625 3.683594 0.00390625 L 4.304688 0.00390625 C 4.371094 0.00390625 4.421875 -0.0390625 4.433594 -0.105469 C 4.441406 -0.164062 4.433594 -0.210938 4.414062 -0.242188 Z M 4.414062 -0.242188 "/></g></g></g><g fill="#ffffff" fill-opacity="1"><g transform="translate(59.998634, 48.231023)"><g><path d="M 4.300781 -4.242188 C 4.1875 -4.382812 4.039062 -4.492188 3.859375 -4.558594 C 3.683594 -4.621094 3.46875 -4.65625 3.21875 -4.65625 L 1.839844 -4.65625 C 1.59375 -4.65625 1.382812 -4.621094 1.210938 -4.558594 C 1.027344 -4.492188 0.882812 -4.382812 0.769531 -4.242188 C 0.660156 -4.101562 0.578125 -3.914062 0.527344 -3.6875 C 0.472656 -3.46875 0.453125 -3.203125 0.453125 -2.886719 L 0.453125 -1.769531 C 0.453125 -1.453125 0.472656 -1.179688 0.527344 -0.960938 C 0.578125 -0.734375 0.660156 -0.546875 0.769531 -0.40625 C 0.882812 -0.261719 1.027344 -0.152344 1.210938 -0.0898438 C 1.378906 -0.0273438 1.59375 0.00390625 1.839844 0.00390625 L 3.21875 0.00390625 C 3.46875 0.00390625 3.683594 -0.0273438 3.859375 -0.0898438 C 4.039062 -0.152344 4.1875 -0.261719 4.300781 -0.402344 C 4.414062 -0.546875 4.492188 -0.734375 4.542969 -0.960938 C 4.585938 -1.179688 4.617188 -1.453125 4.617188 -1.769531 L 4.617188 -2.886719 C 4.617188 -3.199219 4.585938 -3.46875 4.542969 -3.6875 C 4.492188 -3.914062 4.414062 -4.101562 4.300781 -4.242188 Z M 3.773438 -2.984375 L 3.773438 -1.667969 C 3.773438 -1.503906 3.769531 -1.363281 3.746094 -1.25 C 3.730469 -1.148438 3.695312 -1.054688 3.648438 -1 C 3.609375 -0.9375 3.554688 -0.898438 3.480469 -0.875 C 3.40625 -0.847656 3.3125 -0.835938 3.191406 -0.835938 L 1.871094 -0.835938 C 1.75 -0.835938 1.65625 -0.847656 1.582031 -0.875 C 1.507812 -0.898438 1.453125 -0.9375 1.414062 -1 C 1.367188 -1.054688 1.339844 -1.148438 1.316406 -1.25 C 1.300781 -1.363281 1.289062 -1.503906 1.289062 -1.667969 L 1.289062 -2.984375 C 1.289062 -3.148438 1.300781 -3.289062 1.316406 -3.402344 C 1.339844 -3.507812 1.367188 -3.59375 1.414062 -3.65625 C 1.453125 -3.710938 1.507812 -3.75 1.582031 -3.78125 C 1.65625 -3.800781 1.75 -3.820312 1.871094 -3.820312 L 3.191406 -3.820312 C 3.3125 -3.820312 3.40625 -3.800781 3.480469 -3.78125 C 3.554688 -3.75 3.609375 -3.710938 3.648438 -3.65625 C 3.695312 -3.59375 3.730469 -3.507812 3.746094 -3.402344 C 3.769531 -3.289062 3.773438 -3.148438 3.773438 -2.984375 Z M 3.773438 -2.984375 "/></g></g></g><g fill="#ffffff" fill-opacity="1"><g transform="translate(65.34844, 48.231023)"><g><path d="M 4.355469 -4.65625 L 0.617188 -4.65625 C 0.566406 -4.65625 0.453125 -4.636719 0.453125 -4.464844 L 0.453125 -4.023438 C 0.453125 -3.835938 0.566406 -3.820312 0.617188 -3.820312 L 2.066406 -3.820312 L 2.066406 -0.191406 C 2.066406 -0.015625 2.179688 0 2.226562 0 L 2.746094 0 C 2.796875 0 2.902344 -0.015625 2.902344 -0.191406 L 2.902344 -3.820312 L 4.355469 -3.820312 C 4.40625 -3.820312 4.519531 -3.835938 4.519531 -4.023438 L 4.519531 -4.464844 C 4.519531 -4.636719 4.40625 -4.65625 4.355469 -4.65625 Z M 4.355469 -4.65625 "/></g></g></g><g fill="#ffffff" fill-opacity="1"><g transform="translate(70.602208, 48.231023)"><g><path d="M 4.300781 -4.242188 C 4.1875 -4.382812 4.039062 -4.492188 3.859375 -4.558594 C 3.683594 -4.621094 3.46875 -4.65625 3.21875 -4.65625 L 1.839844 -4.65625 C 1.59375 -4.65625 1.382812 -4.621094 1.210938 -4.558594 C 1.027344 -4.492188 0.882812 -4.382812 0.769531 -4.242188 C 0.660156 -4.101562 0.578125 -3.914062 0.527344 -3.6875 C 0.472656 -3.46875 0.453125 -3.203125 0.453125 -2.886719 L 0.453125 -1.769531 C 0.453125 -1.453125 0.472656 -1.179688 0.527344 -0.960938 C 0.578125 -0.734375 0.660156 -0.546875 0.769531 -0.40625 C 0.882812 -0.261719 1.027344 -0.152344 1.210938 -0.0898438 C 1.378906 -0.0273438 1.59375 0.00390625 1.839844 0.00390625 L 3.21875 0.00390625 C 3.46875 0.00390625 3.683594 -0.0273438 3.859375 -0.0898438 C 4.039062 -0.152344 4.1875 -0.261719 4.300781 -0.402344 C 4.414062 -0.546875 4.492188 -0.734375 4.542969 -0.960938 C 4.585938 -1.179688 4.617188 -1.453125 4.617188 -1.769531 L 4.617188 -2.886719 C 4.617188 -3.199219 4.585938 -3.46875 4.542969 -3.6875 C 4.492188 -3.914062 4.414062 -4.101562 4.300781 -4.242188 Z M 3.773438 -2.984375 L 3.773438 -1.667969 C 3.773438 -1.503906 3.769531 -1.363281 3.746094 -1.25 C 3.730469 -1.148438 3.695312 -1.054688 3.648438 -1 C 3.609375 -0.9375 3.554688 -0.898438 3.480469 -0.875 C 3.40625 -0.847656 3.3125 -0.835938 3.191406 -0.835938 L 1.871094 -0.835938 C 1.75 -0.835938 1.65625 -0.847656 1.582031 -0.875 C 1.507812 -0.898438 1.453125 -0.9375 1.414062 -1 C 1.367188 -1.054688 1.339844 -1.148438 1.316406 -1.25 C 1.300781 -1.363281 1.289062 -1.503906 1.289062 -1.667969 L 1.289062 -2.984375 C 1.289062 -3.148438 1.300781 -3.289062 1.316406 -3.402344 C 1.339844 -3.507812 1.367188 -3.59375 1.414062 -3.65625 C 1.453125 -3.710938 1.507812 -3.75 1.582031 -3.78125 C 1.65625 -3.800781 1.75 -3.820312 1.871094 -3.820312 L 3.191406 -3.820312 C 3.3125 -3.820312 3.40625 -3.800781 3.480469 -3.78125 C 3.554688 -3.75 3.609375 -3.710938 3.648438 -3.65625 C 3.695312 -3.59375 3.730469 -3.507812 3.746094 -3.402344 C 3.769531 -3.289062 3.773438 -3.148438 3.773438 -2.984375 Z M 3.773438 -2.984375 "/></g></g></g><g fill="#ffffff" fill-opacity="1"><g transform="translate(75.952011, 48.231023)"><g><path d="M 3.902344 -4.65625 L 1.847656 -4.65625 C 1.597656 -4.65625 1.382812 -4.621094 1.210938 -4.558594 C 1.027344 -4.492188 0.882812 -4.382812 0.773438 -4.242188 C 0.660156 -4.101562 0.578125 -3.914062 0.527344 -3.6875 C 0.472656 -3.46875 0.453125 -3.199219 0.453125 -2.886719 L 0.453125 -1.769531 C 0.453125 -1.453125 0.472656 -1.179688 0.527344 -0.953125 C 0.578125 -0.734375 0.660156 -0.546875 0.773438 -0.402344 C 0.886719 -0.261719 1.035156 -0.152344 1.210938 -0.0898438 C 1.382812 -0.0273438 1.597656 0.00390625 1.847656 0.00390625 L 3.902344 0.00390625 C 3.949219 0.00390625 4.0625 -0.015625 4.0625 -0.191406 L 4.0625 -0.636719 C 4.0625 -0.8125 3.949219 -0.835938 3.902344 -0.835938 L 1.875 -0.835938 C 1.757812 -0.835938 1.65625 -0.847656 1.582031 -0.875 C 1.507812 -0.898438 1.457031 -0.9375 1.414062 -1 C 1.367188 -1.054688 1.339844 -1.140625 1.316406 -1.25 C 1.300781 -1.363281 1.289062 -1.503906 1.289062 -1.671875 L 1.289062 -2.988281 C 1.289062 -3.15625 1.300781 -3.300781 1.316406 -3.40625 C 1.339844 -3.515625 1.367188 -3.59375 1.414062 -3.65625 C 1.457031 -3.71875 1.507812 -3.757812 1.582031 -3.78125 C 1.65625 -3.808594 1.757812 -3.820312 1.875 -3.820312 L 3.902344 -3.820312 C 3.949219 -3.820312 4.0625 -3.839844 4.0625 -4.023438 L 4.0625 -4.457031 C 4.0625 -4.632812 3.949219 -4.65625 3.902344 -4.65625 Z M 3.902344 -4.65625 "/></g></g></g><g fill="#ffffff" fill-opacity="1"><g transform="translate(80.748195, 48.231023)"><g><path d="M 4.300781 -4.242188 C 4.1875 -4.382812 4.039062 -4.492188 3.859375 -4.558594 C 3.683594 -4.621094 3.46875 -4.65625 3.21875 -4.65625 L 1.839844 -4.65625 C 1.59375 -4.65625 1.382812 -4.621094 1.210938 -4.558594 C 1.027344 -4.492188 0.882812 -4.382812 0.769531 -4.242188 C 0.660156 -4.101562 0.578125 -3.914062 0.527344 -3.6875 C 0.472656 -3.46875 0.453125 -3.203125 0.453125 -2.886719 L 0.453125 -1.769531 C 0.453125 -1.453125 0.472656 -1.179688 0.527344 -0.960938 C 0.578125 -0.734375 0.660156 -0.546875 0.769531 -0.40625 C 0.882812 -0.261719 1.027344 -0.152344 1.210938 -0.0898438 C 1.378906 -0.0273438 1.59375 0.00390625 1.839844 0.00390625 L 3.21875 0.00390625 C 3.46875 0.00390625 3.683594 -0.0273438 3.859375 -0.0898438 C 4.039062 -0.152344 4.1875 -0.261719 4.300781 -0.402344 C 4.414062 -0.546875 4.492188 -0.734375 4.542969 -0.960938 C 4.585938 -1.179688 4.617188 -1.453125 4.617188 -1.769531 L 4.617188 -2.886719 C 4.617188 -3.199219 4.585938 -3.46875 4.542969 -3.6875 C 4.492188 -3.914062 4.414062 -4.101562 4.300781 -4.242188 Z M 3.773438 -2.984375 L 3.773438 -1.667969 C 3.773438 -1.503906 3.769531 -1.363281 3.746094 -1.25 C 3.730469 -1.148438 3.695312 -1.054688 3.648438 -1 C 3.609375 -0.9375 3.554688 -0.898438 3.480469 -0.875 C 3.40625 -0.847656 3.3125 -0.835938 3.191406 -0.835938 L 1.871094 -0.835938 C 1.75 -0.835938 1.65625 -0.847656 1.582031 -0.875 C 1.507812 -0.898438 1.453125 -0.9375 1.414062 -1 C 1.367188 -1.054688 1.339844 -1.148438 1.316406 -1.25 C 1.300781 -1.363281 1.289062 -1.503906 1.289062 -1.667969 L 1.289062 -2.984375 C 1.289062 -3.148438 1.300781 -3.289062 1.316406 -3.402344 C 1.339844 -3.507812 1.367188 -3.59375 1.414062 -3.65625 C 1.453125 -3.710938 1.507812 -3.75 1.582031 -3.78125 C 1.65625 -3.800781 1.75 -3.820312 1.871094 -3.820312 L 3.191406 -3.820312 C 3.3125 -3.820312 3.40625 -3.800781 3.480469 -3.78125 C 3.554688 -3.75 3.609375 -3.710938 3.648438 -3.65625 C 3.695312 -3.59375 3.730469 -3.507812 3.746094 -3.402344 C 3.769531 -3.289062 3.773438 -3.148438 3.773438 -2.984375 Z M 3.773438 -2.984375 "/></g></g></g><g fill="#ffffff" fill-opacity="1"><g transform="translate(86.098001, 48.231023)"><g><path d="M 3.710938 -0.835938 L 1.875 -0.835938 C 1.757812 -0.835938 1.660156 -0.847656 1.582031 -0.875 C 1.515625 -0.898438 1.457031 -0.9375 1.417969 -1 C 1.371094 -1.0625 1.339844 -1.148438 1.320312 -1.25 C 1.300781 -1.363281 1.292969 -1.503906 1.292969 -1.671875 L 1.292969 -4.457031 C 1.292969 -4.636719 1.179688 -4.65625 1.136719 -4.65625 L 0.617188 -4.65625 C 0.566406 -4.65625 0.453125 -4.636719 0.453125 -4.457031 L 0.453125 -1.769531 C 0.453125 -1.453125 0.480469 -1.179688 0.53125 -0.960938 C 0.582031 -0.734375 0.660156 -0.546875 0.773438 -0.40625 C 0.886719 -0.261719 1.035156 -0.152344 1.214844 -0.0898438 C 1.382812 -0.0273438 1.597656 0.00390625 1.847656 0.00390625 L 3.710938 0.00390625 C 3.761719 0.00390625 3.871094 -0.015625 3.871094 -0.191406 L 3.871094 -0.636719 C 3.871094 -0.8125 3.761719 -0.835938 3.710938 -0.835938 Z M 3.710938 -0.835938 "/></g></g></g><path fill="#ffffff" d="M 17.308594 44.296875 L 9.707031 44.296875 L 13.421875 40.582031 L 21.027344 40.582031 L 23.5625 38.046875 C 19.410156 35.140625 13.652344 35.542969 9.949219 39.246094 C 6.242188 42.953125 5.84375 48.710938 8.75 52.859375 L 17.308594 44.296875 " fill-opacity="1" fill-rule="nonzero"/><path fill="#ffffff" d="M 26.1875 40.675781 L 17.625 49.238281 L 25.226562 49.234375 L 21.511719 52.953125 L 13.910156 52.953125 L 11.375 55.488281 C 15.523438 58.390625 21.28125 57.992188 24.988281 54.289062 C 28.695312 50.582031 29.09375 44.824219 26.1875 40.675781 " fill-opacity="1" fill-rule="nonzero"/></svg>